<svg xmlns="http://www.w3.org/2000/svg" viewBox="0 0 201.9 59.5"><path d="M59.8 24a25.62 25.62 0 10-27.4 35.2c-.6-2.1-1.2-4.4-1.7-6.9a36.69 36.69 0 004.8 2.6s.1 2.2.3 4.6a23.25 23.25 0 005.3-.5v-.8c.3-1.9 1.1-5.2 1.2-7.4a17.57 17.57 0 002.9-3.7.6.6 0 01-.1.4c-.6 4.3-1.7 8.8-2.4 10.1a5 5 0 01-.8 1.2 32.38 32.38 0 004.1-1.3A25.66 25.66 0 0059.8 24zm-1.5 3.8c-.4.4-1.3.7-1.5-.6a16 16 0 01-.2-2.2s-1.9-3.4-2.7-3.5-5.8 3.5-7.2 5c-1.2 1.3-1.4 1.2-1.4 3.5 0 1.7.2 8.2.1 13.1l-8.1 2.2a67.45 67.45 0 01-7.8 1.8l-1-5.8L25.8 28s-3.8-1.4-5.2-1.8-2.3-.7-4 .6a5 5 0 00-1.7 3.9s.4 1 .5 1.4-1.2.4-2 .4-.9-1.4-.3-3.1a21.34 21.34 0 011.9-3.7 10.9 10.9 0 012.1-2.9s.1-.3 1.3-.2 7.3.4 7.3.4l.1-2.3A137 137 0 0146 19.4a10.87 10.87 0 01-.1 1.8 23.64 23.64 0 018.1-2 1.24 1.24 0 01.8.4c.3.4 2.4 3 2.7 3.4a32.52 32.52 0 011.8 3c-.1 0-.6 1.3-1 1.8z" fill="#fdc305"/><path d="M56.4 21.7a11.46 11.46 0 011 1.3 32.52 32.52 0 011.8 3 5.71 5.71 0 01-.9 1.8c-.5.5-1.3.7-1.5-.6a16 16 0 01-.2-2.2s-1.9-3.4-2.7-3.5-5.8 3.5-7.2 5c-1.2 1.3-1.4 1.2-1.4 3.5 0 1.5.2 6.6.1 11.2 1.8.2 4.5.7 5.3 1.9 0 0-.3-7.2 7.8-3.4 0 0 .3-9.8 11.5-7.3a41.36 41.36 0 00-13.6-10.7zM45.8 19.4a95.5 95.5 0 00-1.4-16.5s-.1-1.3-.9-.2a15.64 15.64 0 00-1.2 4 62.23 62.23 0 00-12.8.2c-.8-2.7-2.2-4-2.9-3.7s-.7 3.3-.7 3.3l-.3 14.2a137 137 0 0120.2-1.3z" fill="#f06351"/><path d="M45.3 47.1c.1-1.1.2-2.5.2-4.1l-8.1 2.2a67.45 67.45 0 01-7.8 1.8l1.1 5a.37.37 0 00.1.3 36.69 36.69 0 004.8 2.6 47.7 47.7 0 006.9-4.1v.1a22 22 0 002.8-3.8z" fill="#e55645"/><path d="M31.9 16.2c0-.1 1 .7 1.4.9s.6.4.6.6-.3.3-.6.3-.9-.1-1-.3h1.2a9.24 9.24 0 01-1.6-1.5zM39.4 16.3l-1.1 1.3c0 .1-.2.3.2.3a3 3 0 001.2-.3c.1-.1.1-.2-.1-.2a3.75 3.75 0 00-1 .1l.8-1.2c.1 0 .1-.1 0 0zM36.3 22.4a2.79 2.79 0 001.1-1c.3-.7 0-.9-.4-1a2.59 2.59 0 00-1.7.3.68.68 0 00-.1 1 1.9 1.9 0 001.1.7z"/><path d="M35.8 23.7a1.79 1.79 0 01-.5.6 1.53 1.53 0 01-1 .4 3.31 3.31 0 01-1.5-.4 2.18 2.18 0 01-.5-.4 1.73 1.73 0 00-.4-.3s.8 4.1 2.6 4.8 2.2-.8 2.2-1.1a6 6 0 00-.8-3.2c.1-.5 0-.3-.1-.4z" fill="#f06351"/><path d="M34.2 24.8c-1.3 0-2.3-1.4-2.4-1.4v-.2h.2s1 1.3 2.1 1.3a1.94 1.94 0 001.6-1l.1-.2.1.2s.4.8 1 .8 1.1-.4 1.6-1.3c0-.1.1-.1.2 0s.1.1 0 .2c-.6 1-1.3 1.5-1.9 1.4a1.37 1.37 0 01-1.1-.8 1.58 1.58 0 01-1.5 1z"/><circle cx="36.18" cy="34.49" r="3.8" fill="#fdc305"/><path d="M41.1 31.5L38 32.8l1.1-5.6-7.5 9.8 3.1-1.3-1.1 5.6zm-7.4 3.8l4.1-5.4-.8 4 2-.8-4.1 5.4.8-4z" fill="#111"/><circle cx="32.29" cy="32.72" r="1.1" fill="#111"/><circle cx="38.88" cy="37.09" r=".8" fill="#111"/><circle cx="39.8" cy="35.41" r=".3" fill="#111"/><path d="M45.8 21.2a60.88 60.88 0 00-5.1 5.2 34 34 0 01-5.3 4.9c-.2-.5-1.6-1.5-1.6-1.5s-3.1-2.1-5.2-3.8a30.22 30.22 0 01-3.1-3c-.3 0-1.1-.1-2-.1a22.38 22.38 0 0012 8.8c.9-.1 3.3-1.9 5.1-3.3a56.1 56.1 0 006-5.9 5.75 5.75 0 001.1-2 8.16 8.16 0 00-1.9.7z" fill="#f06351"/><path fill="#fdc305" d="M65.1 3.5l-8.4 9.4-1.3-2L63.6 0l1.5 3.5zM62.5 17.3l5.6-4.2-.8-3.7-5.4 4.8.6 3.1zM59.8 49.4l6.2 3.2 3-2.4-6.7-2.7-2.5 1.9zM1.9 6l3-3.4 9.3 9-1.2 2.3L1.9 6zM7.3 16.3l-4.7-3.1L.2 17l5.1 2.4 2-3.1zM13.8 52.6l-4.5 3.3 2.8 3.6 4-4-2.3-2.9z"/><path d="M25.8 28s-3.8-1.4-5.2-1.8-2.3-.7-4 .6a5 5 0 00-1.7 3.9s.4 1 .5 1.4-1.2.4-2 .4-.9-1.4-.3-3.1a21.34 21.34 0 011.9-3.7c-5.4 2.8-15 9.4-15 9.4a46.36 46.36 0 018.2.2c5.3.5 5 4.7 5 4.7a32.83 32.83 0 015.6-1.1 2.24 2.24 0 012.3 2.1l.5 3.9a24.45 24.45 0 012.7-2.4 5.89 5.89 0 014.4-1.3z" fill="#f06351"/><path d="M85.6 42a8.48 8.48 0 01-1.4-5.2v-7.5a8.28 8.28 0 011.4-5.2q1.35-1.8 4.8-1.8c2.1 0 3.7.5 4.5 1.6a6.54 6.54 0 011.3 4.5v1.8h-4.1v-1.9a6.62 6.62 0 00-.1-1.5 1.35 1.35 0 00-.5-.9 1.69 1.69 0 00-1.2-.4 1.45 1.45 0 00-1.5.8 6.08 6.08 0 00-.3 2.2V38a4.32 4.32 0 00.4 2.2 1.42 1.42 0 001.4.7c.7 0 1.2-.2 1.4-.7A6.08 6.08 0 0092 38v-2h4.1v1.7a6.83 6.83 0 01-1.3 4.6c-.9 1.1-2.4 1.6-4.6 1.6s-3.7-.7-4.6-1.9zM101.8 22.6h4.7l4 21h-3.9l-.8-4.6h-3.3l-.8 4.6h-4zm3.7 13.7l-1.3-8.4-1.2 8.4zM113.6 25.7h-3.2v-3.2h10.7v3.2h-3.2v17.8h-4.3z" fill="#111"/><path d="M129.5 22.6h8.1v2.2h-5.2v6.9h4.2v2.1h-4.2v7.7h5.3v2.1h-8.2v-21zM140 22.6h2l6 13.9V22.6h2.4v21h-1.9l-6-14.3v14.3H140zM153.7 22.6h8.1v2.2h-5.2v6.9h4.2v2.1h-4.2v7.7h5.3v2.1h-8.2v-21zM164.3 22.6h4.2c2.1 0 3.7.4 4.7 1.3a5.47 5.47 0 011.5 4.3c0 2.7-.9 4.3-2.6 4.9l3 10.5h-2.8l-2.7-9.8h-2.3v9.8h-2.9v-21zm4 9c1.3 0 2.2-.2 2.7-.8a3.78 3.78 0 00.8-2.7 5.25 5.25 0 00-.3-2 1.82 1.82 0 00-1-1.1 5.62 5.62 0 00-2-.3h-1.3v6.9zM178.6 42a9.62 9.62 0 01-1.3-5.3v-7a14.47 14.47 0 01.5-4 4.63 4.63 0 011.7-2.4 5.53 5.53 0 013.4-.8 5.38 5.38 0 014.2 1.5c.9 1 1.3 2.5 1.3 4.6v.8h-2.7v-.6a12.14 12.14 0 00-.2-2.3 1.74 1.74 0 00-.8-1.2 2.86 2.86 0 00-1.7-.4 2.44 2.44 0 00-1.8.6 2.75 2.75 0 00-.8 1.5 14.73 14.73 0 00-.2 2.5V37a7.57 7.57 0 00.6 3.5 2.25 2.25 0 002.2 1 2.31 2.31 0 002.2-1.1 8.36 8.36 0 00.6-3.6v-1.4h-2.7v-2.1h5.3v10.4h-1.8l-.3-2.4a3.72 3.72 0 01-3.7 2.7 5.2 5.2 0 01-4-2zM194.6 36.1l-4.5-13.6h2.7l3.2 10.1 3.2-10.1h2.7l-4.5 13.6v7.4h-2.8v-7.4z" fill="#444"/></svg>